<svg width="79" height="32" viewBox="0 0 79 32" fill="none" xmlns="http://www.w3.org/2000/svg">
<path d="M60.584 11.8302H60.4877V11.9265V17.243H58.0499V4.51038H60.4877V9.57644V9.67275H60.584H62.888H62.9843V9.57644V4.51038H65.4029V17.243H62.9651V11.9265V11.8302H62.8688H60.584Z" fill="black" stroke="black" stroke-width="0.192626"/>
<path d="M37.6201 4.41406V17.3393H40.0201V9.1334L41.4409 17.3393H43.0537L44.4937 9.1334V17.3393H46.9129V4.41406H43.3225L42.2665 10.6359L41.2105 4.41406H37.6201Z" fill="black"/>
<path d="M22.4517 4.41406L24.0453 10.1928L25.6581 4.41406H28.2885L25.4469 13.1015V17.3393H22.6629V13.1015L19.8213 4.41406H22.4517Z" fill="black"/>
<path d="M33.8554 4.41406H30.361L28.0762 17.3393H30.6874L31.129 14.2572H33.1066L33.5482 17.3393H36.1786L33.8554 4.41406ZM32.1082 7.34198L32.761 11.9265H31.4554L32.1082 7.34198Z" fill="black"/>
<path d="M54.1693 4.41406H50.6749L48.3901 17.3393H51.0013L51.4429 14.2572H53.4205L53.8621 17.3393H56.4925L54.1693 4.41406ZM52.4221 7.34198L53.0749 11.9265H51.7693L52.4221 7.34198Z" fill="black"/>
<path d="M72.7753 4.41406H69.2809L66.9961 17.3393H69.6073L70.0489 14.2572H72.0265L72.4681 17.3393H75.0985L72.7753 4.41406ZM71.0281 7.34198L71.6809 11.9265H70.3753L71.0281 7.34198Z" fill="black"/>
<g clip-path="url(#clip0_1937_21923)">
<mask id="path-7-inside-1_1937_21923" fill="white">
<path d="M10.9717 17.6555C7.22824 17.6555 4.18245 14.6098 4.18245 10.8663C4.18245 7.12277 7.22824 4.07698 10.9717 4.07698C14.7152 4.07698 17.761 7.10935 17.761 10.8663C17.761 14.6098 14.7152 17.6555 10.9717 17.6555ZM10.9717 3.21826C6.7452 3.21826 3.32373 6.63974 3.32373 10.8663C3.32373 15.0928 6.7452 18.5143 10.9717 18.5143C15.1983 18.5143 18.6197 15.0928 18.6197 10.8663C18.6197 6.63974 15.1983 3.21826 10.9717 3.21826Z"/>
<path d="M13.5076 12.3285C13.4003 12.5164 13.1722 12.5835 12.9843 12.4761L12.0451 11.9394V11.4967L12.4342 11.2686L13.36 11.8053C13.5479 11.9126 13.615 12.1407 13.5076 12.3285ZM11.4145 11.121L10.9717 11.3759L10.5289 11.121V10.6111L10.9717 10.3562L11.4145 10.6111V11.121ZM10.596 8.3167C10.5826 8.10202 10.7436 7.92759 10.9583 7.91417C11.173 7.90076 11.3474 8.06177 11.3608 8.27645C11.3608 8.28987 11.3608 8.30328 11.3608 8.3167V9.3901L10.9717 9.6182L10.596 9.3901V8.3167ZM9.88489 11.926L8.94567 12.4627C8.77124 12.5835 8.52972 12.5298 8.42238 12.3554C8.30163 12.181 8.3553 11.9394 8.52972 11.8321C8.54314 11.8187 8.55656 11.8187 8.58339 11.8053L9.52262 11.2686L9.89831 11.4967L9.88489 11.926ZM16.5266 13.9521L15.4129 12.6506C15.3995 12.6371 15.3861 12.6237 15.3593 12.6103C15.3056 12.5835 15.2385 12.5835 15.1848 12.6103C15.0104 12.6908 14.8091 12.6908 14.6347 12.5835C14.4871 12.503 14.3798 12.3554 14.3529 12.181C14.2724 11.7516 14.0041 11.3759 13.6284 11.1612L13.1319 10.866L15.963 9.22909L15.6142 8.6253L12.4342 10.4635L12.0585 10.2488V9.79263L15.2385 7.95443L14.8896 7.35064L12.0585 8.98758V8.42404C12.0585 7.98126 11.8707 7.56532 11.5353 7.28355C11.2803 7.06887 11.2535 6.69318 11.4682 6.45166C11.495 6.41141 11.5353 6.37116 11.5889 6.34432C11.6426 6.30407 11.6694 6.2504 11.6694 6.18331C11.6694 6.15648 11.6694 6.14306 11.656 6.11622L11.0925 4.50612C11.0656 4.43903 10.9986 4.41219 10.9449 4.42561C10.9046 4.43903 10.8778 4.46587 10.8644 4.50612L10.3008 6.11622C10.3008 6.12964 10.2874 6.15648 10.2874 6.18331C10.2874 6.2504 10.3143 6.30407 10.3679 6.34432C10.6363 6.53217 10.7034 6.89444 10.5155 7.16279C10.4887 7.20304 10.4484 7.2433 10.4082 7.28355C10.0727 7.56532 9.88489 7.98126 9.88489 8.42404V8.98758L7.06721 7.36405L6.71835 7.96784L9.88489 9.79263V10.2354L9.5092 10.4635L6.32925 8.6253L5.98039 9.22909L8.81149 10.866L8.31504 11.1478C7.93935 11.3625 7.671 11.7382 7.5905 12.1675C7.56366 12.342 7.45632 12.4896 7.30873 12.5701C7.1343 12.664 6.93304 12.6774 6.75861 12.5969C6.70494 12.5701 6.63785 12.5701 6.58418 12.5969C6.57076 12.6103 6.54393 12.6237 6.53051 12.6371L5.41685 13.9387C5.3766 13.9923 5.3766 14.0594 5.43027 14.0997C5.45711 14.1265 5.49736 14.1399 5.53761 14.1265L7.20139 13.8179C7.28189 13.8045 7.34898 13.7374 7.34898 13.6435C7.3624 13.4556 7.46974 13.2812 7.64417 13.1739C7.79176 13.0933 7.9796 13.0799 8.14061 13.1336C8.55656 13.2812 9.01275 13.2409 9.38845 13.0128L9.88489 12.7311V15.9915H10.5826V12.3285L10.9583 12.1139L11.334 12.3285V15.9915H12.0317V12.7445L12.5282 13.0263C12.9038 13.2409 13.36 13.2946 13.776 13.147C13.937 13.0933 14.1248 13.1068 14.2724 13.1873C14.4469 13.2812 14.5542 13.4556 14.5676 13.6569C14.5676 13.724 14.6079 13.7776 14.6615 13.8045C14.675 13.8179 14.7018 13.8179 14.7152 13.8313L16.3924 14.1399C16.4461 14.1533 16.4863 14.1265 16.5132 14.0862C16.5668 14.046 16.5668 13.9923 16.5266 13.9521Z"/>
</mask>
<path d="M10.9717 17.6555C7.22824 17.6555 4.18245 14.6098 4.18245 10.8663C4.18245 7.12277 7.22824 4.07698 10.9717 4.07698C14.7152 4.07698 17.761 7.10935 17.761 10.8663C17.761 14.6098 14.7152 17.6555 10.9717 17.6555ZM10.9717 3.21826C6.7452 3.21826 3.32373 6.63974 3.32373 10.8663C3.32373 15.0928 6.7452 18.5143 10.9717 18.5143C15.1983 18.5143 18.6197 15.0928 18.6197 10.8663C18.6197 6.63974 15.1983 3.21826 10.9717 3.21826Z" fill="black"/>
<path d="M13.5076 12.3285C13.4003 12.5164 13.1722 12.5835 12.9843 12.4761L12.0451 11.9394V11.4967L12.4342 11.2686L13.36 11.8053C13.5479 11.9126 13.615 12.1407 13.5076 12.3285ZM11.4145 11.121L10.9717 11.3759L10.5289 11.121V10.6111L10.9717 10.3562L11.4145 10.6111V11.121ZM10.596 8.3167C10.5826 8.10202 10.7436 7.92759 10.9583 7.91417C11.173 7.90076 11.3474 8.06177 11.3608 8.27645C11.3608 8.28987 11.3608 8.30328 11.3608 8.3167V9.3901L10.9717 9.6182L10.596 9.3901V8.3167ZM9.88489 11.926L8.94567 12.4627C8.77124 12.5835 8.52972 12.5298 8.42238 12.3554C8.30163 12.181 8.3553 11.9394 8.52972 11.8321C8.54314 11.8187 8.55656 11.8187 8.58339 11.8053L9.52262 11.2686L9.89831 11.4967L9.88489 11.926ZM16.5266 13.9521L15.4129 12.6506C15.3995 12.6371 15.3861 12.6237 15.3593 12.6103C15.3056 12.5835 15.2385 12.5835 15.1848 12.6103C15.0104 12.6908 14.8091 12.6908 14.6347 12.5835C14.4871 12.503 14.3798 12.3554 14.3529 12.181C14.2724 11.7516 14.0041 11.3759 13.6284 11.1612L13.1319 10.866L15.963 9.22909L15.6142 8.6253L12.4342 10.4635L12.0585 10.2488V9.79263L15.2385 7.95443L14.8896 7.35064L12.0585 8.98758V8.42404C12.0585 7.98126 11.8707 7.56532 11.5353 7.28355C11.2803 7.06887 11.2535 6.69318 11.4682 6.45166C11.495 6.41141 11.5353 6.37116 11.5889 6.34432C11.6426 6.30407 11.6694 6.2504 11.6694 6.18331C11.6694 6.15648 11.6694 6.14306 11.656 6.11622L11.0925 4.50612C11.0656 4.43903 10.9986 4.41219 10.9449 4.42561C10.9046 4.43903 10.8778 4.46587 10.8644 4.50612L10.3008 6.11622C10.3008 6.12964 10.2874 6.15648 10.2874 6.18331C10.2874 6.2504 10.3143 6.30407 10.3679 6.34432C10.6363 6.53217 10.7034 6.89444 10.5155 7.16279C10.4887 7.20304 10.4484 7.2433 10.4082 7.28355C10.0727 7.56532 9.88489 7.98126 9.88489 8.42404V8.98758L7.06721 7.36405L6.71835 7.96784L9.88489 9.79263V10.2354L9.5092 10.4635L6.32925 8.6253L5.98039 9.22909L8.81149 10.866L8.31504 11.1478C7.93935 11.3625 7.671 11.7382 7.5905 12.1675C7.56366 12.342 7.45632 12.4896 7.30873 12.5701C7.1343 12.664 6.93304 12.6774 6.75861 12.5969C6.70494 12.5701 6.63785 12.5701 6.58418 12.5969C6.57076 12.6103 6.54393 12.6237 6.53051 12.6371L5.41685 13.9387C5.3766 13.9923 5.3766 14.0594 5.43027 14.0997C5.45711 14.1265 5.49736 14.1399 5.53761 14.1265L7.20139 13.8179C7.28189 13.8045 7.34898 13.7374 7.34898 13.6435C7.3624 13.4556 7.46974 13.2812 7.64417 13.1739C7.79176 13.0933 7.9796 13.0799 8.14061 13.1336C8.55656 13.2812 9.01275 13.2409 9.38845 13.0128L9.88489 12.7311V15.9915H10.5826V12.3285L10.9583 12.1139L11.334 12.3285V15.9915H12.0317V12.7445L12.5282 13.0263C12.9038 13.2409 13.36 13.2946 13.776 13.147C13.937 13.0933 14.1248 13.1068 14.2724 13.1873C14.4469 13.2812 14.5542 13.4556 14.5676 13.6569C14.5676 13.724 14.6079 13.7776 14.6615 13.8045C14.675 13.8179 14.7018 13.8179 14.7152 13.8313L16.3924 14.1399C16.4461 14.1533 16.4863 14.1265 16.5132 14.0862C16.5668 14.046 16.5668 13.9923 16.5266 13.9521Z" fill="black"/>
<path d="M10.9717 17.6555C7.22824 17.6555 4.18245 14.6098 4.18245 10.8663C4.18245 7.12277 7.22824 4.07698 10.9717 4.07698C14.7152 4.07698 17.761 7.10935 17.761 10.8663C17.761 14.6098 14.7152 17.6555 10.9717 17.6555ZM10.9717 3.21826C6.7452 3.21826 3.32373 6.63974 3.32373 10.8663C3.32373 15.0928 6.7452 18.5143 10.9717 18.5143C15.1983 18.5143 18.6197 15.0928 18.6197 10.8663C18.6197 6.63974 15.1983 3.21826 10.9717 3.21826Z" stroke="black" stroke-width="0.64" mask="url(#path-7-inside-1_1937_21923)"/>
<path d="M13.5076 12.3285C13.4003 12.5164 13.1722 12.5835 12.9843 12.4761L12.0451 11.9394V11.4967L12.4342 11.2686L13.36 11.8053C13.5479 11.9126 13.615 12.1407 13.5076 12.3285ZM11.4145 11.121L10.9717 11.3759L10.5289 11.121V10.6111L10.9717 10.3562L11.4145 10.6111V11.121ZM10.596 8.3167C10.5826 8.10202 10.7436 7.92759 10.9583 7.91417C11.173 7.90076 11.3474 8.06177 11.3608 8.27645C11.3608 8.28987 11.3608 8.30328 11.3608 8.3167V9.3901L10.9717 9.6182L10.596 9.3901V8.3167ZM9.88489 11.926L8.94567 12.4627C8.77124 12.5835 8.52972 12.5298 8.42238 12.3554C8.30163 12.181 8.3553 11.9394 8.52972 11.8321C8.54314 11.8187 8.55656 11.8187 8.58339 11.8053L9.52262 11.2686L9.89831 11.4967L9.88489 11.926ZM16.5266 13.9521L15.4129 12.6506C15.3995 12.6371 15.3861 12.6237 15.3593 12.6103C15.3056 12.5835 15.2385 12.5835 15.1848 12.6103C15.0104 12.6908 14.8091 12.6908 14.6347 12.5835C14.4871 12.503 14.3798 12.3554 14.3529 12.181C14.2724 11.7516 14.0041 11.3759 13.6284 11.1612L13.1319 10.866L15.963 9.22909L15.6142 8.6253L12.4342 10.4635L12.0585 10.2488V9.79263L15.2385 7.95443L14.8896 7.35064L12.0585 8.98758V8.42404C12.0585 7.98126 11.8707 7.56532 11.5353 7.28355C11.2803 7.06887 11.2535 6.69318 11.4682 6.45166C11.495 6.41141 11.5353 6.37116 11.5889 6.34432C11.6426 6.30407 11.6694 6.2504 11.6694 6.18331C11.6694 6.15648 11.6694 6.14306 11.656 6.11622L11.0925 4.50612C11.0656 4.43903 10.9986 4.41219 10.9449 4.42561C10.9046 4.43903 10.8778 4.46587 10.8644 4.50612L10.3008 6.11622C10.3008 6.12964 10.2874 6.15648 10.2874 6.18331C10.2874 6.2504 10.3143 6.30407 10.3679 6.34432C10.6363 6.53217 10.7034 6.89444 10.5155 7.16279C10.4887 7.20304 10.4484 7.2433 10.4082 7.28355C10.0727 7.56532 9.88489 7.98126 9.88489 8.42404V8.98758L7.06721 7.36405L6.71835 7.96784L9.88489 9.79263V10.2354L9.5092 10.4635L6.32925 8.6253L5.98039 9.22909L8.81149 10.866L8.31504 11.1478C7.93935 11.3625 7.671 11.7382 7.5905 12.1675C7.56366 12.342 7.45632 12.4896 7.30873 12.5701C7.1343 12.664 6.93304 12.6774 6.75861 12.5969C6.70494 12.5701 6.63785 12.5701 6.58418 12.5969C6.57076 12.6103 6.54393 12.6237 6.53051 12.6371L5.41685 13.9387C5.3766 13.9923 5.3766 14.0594 5.43027 14.0997C5.45711 14.1265 5.49736 14.1399 5.53761 14.1265L7.20139 13.8179C7.28189 13.8045 7.34898 13.7374 7.34898 13.6435C7.3624 13.4556 7.46974 13.2812 7.64417 13.1739C7.79176 13.0933 7.9796 13.0799 8.14061 13.1336C8.55656 13.2812 9.01275 13.2409 9.38845 13.0128L9.88489 12.7311V15.9915H10.5826V12.3285L10.9583 12.1139L11.334 12.3285V15.9915H12.0317V12.7445L12.5282 13.0263C12.9038 13.2409 13.36 13.2946 13.776 13.147C13.937 13.0933 14.1248 13.1068 14.2724 13.1873C14.4469 13.2812 14.5542 13.4556 14.5676 13.6569C14.5676 13.724 14.6079 13.7776 14.6615 13.8045C14.675 13.8179 14.7018 13.8179 14.7152 13.8313L16.3924 14.1399C16.4461 14.1533 16.4863 14.1265 16.5132 14.0862C16.5668 14.046 16.5668 13.9923 16.5266 13.9521Z" stroke="black" stroke-width="0.64" mask="url(#path-7-inside-1_1937_21923)"/>
</g>
<path d="M70.8036 24.2927C70.5732 24.389 70.3812 24.4661 70.1892 24.4853C70.0356 24.5046 69.9012 24.5816 69.7476 24.6394C69.498 24.7165 69.21 24.7165 68.9412 24.755C67.8276 24.8898 66.7332 25.0054 65.6196 25.121C64.5636 25.2366 63.5076 25.3521 62.4516 25.4677C61.242 25.6026 60.0324 25.7374 58.8228 25.8722C57.786 25.9878 56.73 26.1034 55.6932 26.219C54.6564 26.3345 53.6004 26.4501 52.5636 26.5657C51.5268 26.6813 50.49 26.7968 49.4532 26.9124C48.2628 27.0472 47.0916 27.1821 45.9012 27.3169C44.8836 27.4325 43.866 27.5481 42.8484 27.6637C41.85 27.7792 40.8516 27.8948 39.8532 28.0104C39.0468 28.1067 38.2404 28.203 37.434 28.2993C37.146 28.3378 36.858 28.3764 36.5124 28.4149C36.9348 27.7022 37.3764 27.0665 37.8756 26.3923C37.5684 26.4116 37.2996 26.4308 37.0308 26.4694C35.6676 26.6235 34.3044 26.7776 32.9412 26.9317C31.674 27.0858 30.4068 27.2399 29.1396 27.3747C27.6804 27.5288 26.2212 27.7022 24.7428 27.8178C24.4164 27.837 24.09 27.8755 23.7828 27.8948C23.2836 27.9333 22.7844 27.9141 22.2852 27.837C21.9972 27.7985 21.7284 27.6444 21.4788 27.5096C20.9412 27.2013 20.4228 26.8739 19.8852 26.5464C19.3092 26.1997 18.7524 25.8337 18.1572 25.5062C17.9652 25.7759 17.8308 26.0649 17.6772 26.3345C17.3316 26.9509 16.9668 27.5481 16.6404 28.1645C16.5252 28.3764 16.3332 28.5112 16.1412 28.5497C15.5844 28.6846 15.0084 28.8001 14.4324 28.8001C14.4132 28.8001 14.394 28.8001 14.3364 28.7809C14.7588 28.0874 15.2388 27.4325 15.6804 26.7583C16.122 26.0841 16.5828 25.4099 17.0244 24.7357C17.466 24.0615 17.9076 23.3874 18.3684 22.6939C18.2916 22.6554 18.2148 22.6939 18.1188 22.6939C17.2356 22.8287 16.3716 23.0021 15.5076 23.1562C15.1236 23.2333 14.7204 23.1562 14.3748 22.9443C14.394 22.848 14.49 22.848 14.5668 22.848C15.8148 22.6361 17.0628 22.4242 18.33 22.2509C19.4052 22.0968 20.4804 21.9812 21.5748 21.9234C22.266 21.8849 22.9764 21.8656 23.6676 22.0004C23.9556 22.0582 24.2244 22.1353 24.474 22.2701C24.5316 22.2894 24.6084 22.3279 24.666 22.3664C25.0308 22.6361 25.1844 22.9443 24.8772 23.4259C24.7044 23.6956 24.4932 23.8882 24.2436 24.0808C23.6484 24.5046 22.9956 24.7935 22.3236 25.0247C21.882 25.1788 21.4212 25.3136 20.9604 25.4099C20.9028 25.4099 20.8644 25.4292 20.826 25.487C21.3636 25.8337 21.8628 26.219 22.4196 26.5079C23.0724 26.8546 23.7828 27.0858 24.5316 27.2013C25.242 27.3169 25.9524 27.2977 26.682 27.2206C27.5076 27.1436 28.3332 27.0665 29.1588 26.9895C30.1188 26.8931 31.0788 26.7968 32.0388 26.7005C32.9604 26.6042 33.8628 26.5079 34.7844 26.4116C35.706 26.3153 36.6276 26.219 37.5492 26.1226C37.5876 26.1226 37.626 26.1226 37.6452 26.1034C38.1828 26.0649 38.0484 26.1034 38.3556 25.6989C38.4324 25.6026 38.4132 25.5255 38.3748 25.4485C38.1444 24.9669 38.01 24.4468 37.8564 23.946C37.7796 23.7148 37.722 23.4644 37.6452 23.2333C37.53 22.848 37.5684 22.7902 37.9524 22.7517C38.4516 22.7132 38.4516 22.7132 38.5668 23.1947C38.6628 23.6378 38.8356 24.0808 38.97 24.5046C38.9892 24.5624 38.9892 24.6394 39.066 24.6394C39.1236 24.6394 39.1428 24.5816 39.162 24.5431C39.5652 23.946 39.9876 23.3681 40.3908 22.771C40.4484 22.6746 40.5636 22.5976 40.6788 22.5783C40.8324 22.5398 40.9668 22.5013 41.1204 22.482C41.3316 22.4628 41.5428 22.405 41.8116 22.4242C40.4292 24.023 39.3732 25.8144 38.2596 27.6637C38.4516 27.6444 38.6052 27.6444 38.7396 27.6444C39.9876 27.5288 41.2548 27.4132 42.5028 27.2977C43.5012 27.2013 44.4996 27.105 45.4788 27.0087C46.6116 26.8931 47.7636 26.7776 48.8964 26.662C49.8372 26.5657 50.7588 26.4694 51.6996 26.3731C52.6404 26.2767 53.6004 26.1804 54.5412 26.0841C55.4436 25.9878 56.346 25.8915 57.2676 25.7952C58.3812 25.6796 59.4948 25.564 60.6084 25.4485C61.5108 25.3521 62.394 25.2558 63.2964 25.1595C64.3908 25.0439 65.466 24.9284 66.5604 24.8128C67.4628 24.7165 68.346 24.6202 69.2484 24.5238C69.6516 24.4853 70.074 24.4275 70.4772 24.389C70.5732 24.2927 70.6692 24.2734 70.8036 24.2927ZM18.1956 25.3907C19.4052 25.121 20.538 24.8513 21.6132 24.3312C21.9588 24.1771 22.2852 23.9845 22.5924 23.7726C22.7652 23.657 22.938 23.5222 23.0532 23.3488C23.3028 23.0214 23.2452 22.771 22.8804 22.5976C22.7844 22.5591 22.6884 22.5205 22.5924 22.482C22.362 22.4242 22.1316 22.3857 21.9012 22.3664C21.306 22.3472 20.6916 22.3664 20.0964 22.405C19.9428 22.4242 19.8468 22.4628 19.77 22.6169C19.29 23.4837 18.7908 24.3505 18.2916 25.2366C18.2532 25.2751 18.234 25.3136 18.1956 25.3907Z" fill="#292627"/>
<path d="M52.2754 25.487C52.2946 25.2559 52.3906 25.0825 52.4866 24.8899C52.717 24.4661 52.8898 24.0231 53.101 23.5993C53.3314 23.1177 53.5618 22.6554 53.8114 22.1739C53.9074 21.9812 53.9074 21.9812 53.7346 21.8657C53.7154 21.8464 53.6962 21.8271 53.677 21.7886C54.061 21.6345 54.4642 21.5767 54.9058 21.5575C54.829 21.8657 54.6754 22.1161 54.5602 22.3857C54.445 22.6554 54.3298 22.9058 54.2146 23.1948C54.3682 23.2333 54.5026 23.1755 54.6178 23.1755C54.9826 23.137 55.3474 23.0985 55.7122 23.0599C55.8082 23.0407 55.8658 23.0021 55.9042 22.9058C56.0962 22.4435 56.3266 22.0198 56.5762 21.5767C56.5954 21.5189 56.653 21.4804 56.7106 21.4611C56.9794 21.3648 57.2482 21.307 57.5554 21.3456C57.4018 21.6345 57.2674 21.8849 57.133 22.1546C56.6722 23.0599 56.269 24.0038 55.885 24.9477C55.8274 25.1018 55.7506 25.1788 55.5778 25.1788C55.3666 25.1981 55.1362 25.2173 54.8866 25.2366C55.1362 24.6395 55.3858 24.0616 55.6354 23.503C55.5394 23.4259 55.4626 23.4837 55.3858 23.4837C54.9826 23.5415 54.5986 23.5993 54.1954 23.6571C54.0418 23.6763 53.9458 23.7534 53.8882 23.8882C53.7154 24.3313 53.5042 24.755 53.3314 25.1981C53.2546 25.3714 53.1586 25.4292 52.9858 25.4292C52.7746 25.4485 52.525 25.5063 52.2754 25.487Z" fill="#292627"/>
<path d="M28.5256 25.1788C28.4488 25.3137 28.3912 25.4485 28.3336 25.5834C28.276 25.6989 28.1992 25.776 28.1032 25.853C27.6616 26.142 27.1816 26.2768 26.6632 26.3153C26.3176 26.3539 25.972 26.3346 25.6264 26.2768C25.396 26.2383 25.1848 26.142 24.9928 26.0457C24.8968 25.9879 24.82 25.9108 24.8008 25.7953C24.6664 25.2559 24.8392 24.7936 25.204 24.4083C25.5304 24.0424 25.9336 23.8112 26.3752 23.6571C26.8168 23.4837 27.2968 23.3874 27.7768 23.3682C28.0648 23.3682 28.3528 23.3874 28.6024 23.5415C28.8904 23.7149 28.9864 23.9653 28.852 24.2735C28.7368 24.5624 28.5256 24.7165 28.2184 24.7743C27.508 24.8899 26.7784 25.0055 26.068 25.0825C25.972 25.1018 25.9336 25.1211 25.8952 25.2174C25.7992 25.4871 25.9144 25.7182 26.1832 25.776C26.4328 25.8338 26.6632 25.7953 26.9128 25.7567C27.3928 25.6797 27.8344 25.487 28.2568 25.2944C28.3144 25.2174 28.3912 25.1596 28.5256 25.1788ZM26.1448 24.5817C26.1448 24.601 26.164 24.6202 26.164 24.6395C26.5672 24.5817 26.9512 24.5239 27.3544 24.4854C27.6232 24.4661 27.7576 24.2928 27.8344 24.0616C27.9112 23.8305 27.8152 23.7149 27.5848 23.7534C27.0088 23.8497 26.548 24.1579 26.1448 24.5817Z" fill="#292627"/>
<path d="M43.328 23.6187C43.52 23.6187 43.7312 23.6379 43.9616 23.6957C44.4416 23.8113 44.6336 24.2736 44.4992 24.6203C44.2496 25.256 43.904 25.7761 43.2704 26.0843C42.656 26.3925 42.0032 26.5273 41.312 26.4695C41.1392 26.4503 40.9664 26.431 40.8128 26.3539C40.4864 26.1998 40.352 25.9109 40.4288 25.5449C40.4864 25.2752 40.64 25.0441 40.7936 24.8322C41.4272 23.9846 42.3104 23.6187 43.328 23.6187ZM41.5424 25.622C41.5232 25.988 41.696 26.1421 42.0416 26.0843C42.3104 26.0457 42.5408 25.9109 42.7136 25.7183C42.9824 25.4486 43.1744 25.1019 43.328 24.7551C43.3664 24.6588 43.4048 24.5433 43.3856 24.4277C43.3664 24.2158 43.2512 24.081 43.04 24.081C42.9632 24.081 42.8864 24.1002 42.8096 24.1195C42.1376 24.3506 41.7536 24.8515 41.5424 25.5064C41.5424 25.5449 41.5424 25.5834 41.5424 25.622Z" fill="#292627"/>
<path d="M46.7264 23.368C46.592 23.6184 46.4576 23.8303 46.3424 24.0614C46.1888 24.3889 45.9968 24.6778 45.8816 25.0246C45.8624 25.1016 45.824 25.1787 45.824 25.2557C45.7856 25.4676 45.8432 25.5254 46.0544 25.5446C46.4384 25.5832 46.7072 25.4291 46.9376 25.1401C47.2448 24.7356 47.4944 24.2733 47.7248 23.811C47.8784 23.4835 48.1088 23.2717 48.4928 23.2524C48.6464 23.2331 48.7808 23.2139 48.9344 23.2139C49.0112 23.2139 49.0496 23.2909 49.0112 23.368C48.704 23.7725 48.4736 24.2155 48.2624 24.6778C47.8784 25.4483 47.264 25.8143 46.4576 25.9877C46.1696 26.0455 45.8816 26.0647 45.5936 26.0455C45.5168 26.0455 45.4592 26.0455 45.3824 26.0262C44.8448 25.9492 44.672 25.6602 44.8448 25.1401C44.9984 24.7163 45.2096 24.3311 45.44 23.9651C45.5936 23.7147 45.8048 23.5221 46.1312 23.4835C46.3232 23.445 46.5152 23.368 46.7264 23.368Z" fill="#292627"/>
<path d="M30.6184 25.0439C30.7336 24.9861 30.7528 24.8705 30.8296 24.7935C31.2712 24.2734 31.7128 23.7533 32.1736 23.2525C32.4424 22.9635 32.788 22.9058 33.172 22.9058C33.172 23.0213 33.0952 23.0984 33.0376 23.1562C32.2504 23.9845 31.5016 24.8705 30.7528 25.7181C30.6376 25.8529 30.5224 25.93 30.3304 25.93C30.1576 25.93 29.9848 25.9685 29.812 25.9878C29.6968 26.007 29.6392 25.9685 29.62 25.8529C29.524 25.1017 29.4088 24.3312 29.3128 23.58C29.2936 23.4451 29.3128 23.3681 29.4664 23.3295C29.716 23.2718 29.9656 23.214 30.2152 23.1754C30.3304 23.1562 30.3688 23.214 30.3688 23.3103C30.4264 23.7918 30.5032 24.2734 30.58 24.7742C30.58 24.8513 30.58 24.9476 30.6184 25.0439Z" fill="#292627"/>
<path d="M59.6099 23.9074C59.4563 24.4661 59.0723 24.6972 58.6115 24.832C58.2083 24.9669 57.7859 25.0054 57.3635 24.9091C56.9219 24.7935 56.7683 24.5238 56.8835 24.0808C57.0755 23.3873 57.5363 22.9443 58.1699 22.6361C58.5539 22.4627 58.9571 22.3472 59.3987 22.3472C59.5715 22.3472 59.7443 22.3857 59.8787 22.5205C59.9555 22.5783 59.9939 22.6554 60.0131 22.7517C60.0707 23.0599 59.8211 23.4451 59.5139 23.5029C58.9955 23.5992 58.4771 23.6955 57.9779 23.8111C57.7475 23.8497 57.6515 23.9845 57.6707 24.1771C57.6899 24.3505 57.8435 24.4661 58.0547 24.4468C58.3427 24.4275 58.6115 24.3505 58.8611 24.2542C59.1107 24.1771 59.3603 24.0423 59.6099 23.9074ZM58.0163 23.5029C58.3043 23.4837 58.5731 23.4259 58.8611 23.3681C59.0915 23.3103 59.2067 23.1562 59.2835 22.9443C59.3411 22.7709 59.2835 22.6939 59.0915 22.7324C58.6115 22.8287 58.3043 23.1369 58.0163 23.5029Z" fill="#292627"/>
<path d="M36.5137 22.752C36.3793 23.0602 36.3409 23.0794 36.0529 23.0987C35.6497 23.1179 35.2465 23.1179 34.8625 23.272C34.7473 23.3106 34.6513 23.3876 34.5361 23.4261C34.4401 23.4454 34.4593 23.5417 34.5553 23.6188C34.7089 23.7343 34.9009 23.7536 35.0737 23.8307C35.2465 23.9077 35.4193 23.9655 35.5729 24.1003C35.8609 24.3507 35.7841 24.6975 35.4577 24.8901C34.3441 25.5258 33.1345 25.545 31.8865 25.5065C31.8481 25.5065 31.8097 25.5065 31.7905 25.4872C31.7713 25.4872 31.7713 25.468 31.7329 25.4487C31.8097 25.3717 31.8865 25.2946 31.9633 25.1983C32.0401 25.1213 32.1169 25.1405 32.2129 25.1405C32.7121 25.1598 33.2305 25.1598 33.7297 25.0827C33.9793 25.0442 34.2289 24.9864 34.4401 24.8708C34.6705 24.7553 34.6897 24.6012 34.4785 24.4471C34.2097 24.2737 33.8833 24.1774 33.5761 24.1196C33.4225 24.0811 33.3457 23.9848 33.2497 23.8884C33.1921 23.8114 33.2113 23.7151 33.2689 23.638C33.3649 23.5032 33.4609 23.3684 33.6145 23.2913C33.9793 23.0987 34.3633 23.0024 34.7473 22.9253C35.3425 22.8097 35.9185 22.7712 36.5137 22.752Z" fill="#292627"/>
<path d="M63.3919 22.1354C63.2959 22.3281 63.1999 22.5014 63.1039 22.6748C62.9695 22.9059 62.8543 23.1564 62.7199 23.3875C62.6815 23.4646 62.6431 23.5416 62.6047 23.6187C62.5471 23.7535 62.4511 23.8883 62.5471 24.0039C62.6431 24.1195 62.7967 24.0424 62.9119 24.0232C62.9503 24.0232 62.9695 24.0039 63.0271 24.0039C62.9887 24.1773 62.8927 24.2736 62.7391 24.3121C62.6431 24.3314 62.5471 24.3699 62.4703 24.3892C62.0863 24.4662 61.9327 24.3506 61.8175 23.9847C61.7215 23.9847 61.6831 24.0617 61.6255 24.1002C61.4527 24.2351 61.2607 24.3506 61.0687 24.447C60.9535 24.5047 60.8383 24.5433 60.7231 24.5625C60.2623 24.6203 60.0319 24.3699 60.1279 23.9269C60.2239 23.4838 60.4543 23.1564 60.7999 22.8482C61.0879 22.5977 61.3951 22.4244 61.7215 22.3088C62.0479 22.1932 62.4127 22.1547 62.7775 22.1354C62.9695 22.1547 63.1807 22.1162 63.3919 22.1354ZM62.5087 22.617C62.3551 22.5785 62.2207 22.617 62.1055 22.6555C61.6255 22.7518 61.2799 23.0215 61.0687 23.4453C61.0111 23.5416 60.9919 23.6572 60.9919 23.7728C60.9919 23.8691 61.0495 23.9461 61.1647 23.9269C61.2223 23.9076 61.2799 23.9076 61.3375 23.8883C61.9135 23.6379 62.2207 23.1564 62.5087 22.617Z" fill="#292627"/>
<path d="M52.3713 22.9442C52.0833 23.1946 51.7761 23.4065 51.3729 23.4065C51.2001 23.4065 51.0273 23.3873 50.8737 23.4836C50.6625 23.5799 50.5089 23.734 50.3937 23.9266C50.1057 24.3889 49.8561 24.8705 49.6065 25.3713C49.5489 25.4869 49.4913 25.5447 49.3569 25.5639C49.0881 25.5832 48.8001 25.641 48.5313 25.6795C48.4737 25.6025 48.5313 25.5447 48.5505 25.5061C48.7425 25.1594 48.9537 24.832 49.1073 24.4852C49.2801 24.0807 49.5297 23.7147 49.7025 23.3102C49.7601 23.1561 49.8753 23.0791 50.0289 23.0983C50.2209 23.0983 50.3937 23.0791 50.5665 23.1946C50.6625 23.2524 50.7201 23.2332 50.7969 23.1946C51.2961 22.9635 51.8145 22.8479 52.3713 22.9442Z" fill="#292627"/>
<path d="M67.3865 22.2316C67.1177 22.1931 66.8681 22.2894 66.5993 22.2701C66.8105 21.9426 67.0985 21.7885 67.4441 21.75C67.5401 21.75 67.6169 21.7115 67.6745 21.6344C67.8281 21.4226 68.0969 21.384 68.3081 21.2877C68.4041 21.2299 68.5385 21.2299 68.6729 21.1914C68.6921 21.3648 68.5385 21.4611 68.5385 21.6344C68.9225 21.6152 69.2873 21.5767 69.6713 21.5574C69.3065 21.8271 68.9417 22.039 68.4809 22.0582C68.3465 22.0582 68.2697 22.116 68.2121 22.2508C68.0009 22.7324 67.7705 23.214 67.5593 23.6955C67.5017 23.8496 67.4057 23.9267 67.2329 23.9267C67.0217 23.9267 66.8297 23.9845 66.5801 23.9845C66.8489 23.3873 67.1177 22.8095 67.3865 22.2316Z" fill="#292627"/>
<path d="M63.2188 24.331C63.238 24.2732 63.2379 24.2347 63.2571 24.2154C63.5835 23.599 63.8139 22.9248 64.1403 22.3084C64.1979 22.2121 64.2171 22.058 64.3515 22.0387C64.5051 22.0002 64.6971 21.9809 64.8315 22.0772C65.0043 22.2121 65.1195 22.1543 65.2731 22.0772C65.6955 21.8654 66.1564 21.8076 66.694 21.8461C66.4252 22.0772 66.1947 22.2699 65.8875 22.3277C65.7531 22.3469 65.6187 22.3662 65.5035 22.3662C65.2539 22.3662 65.0427 22.4818 64.8891 22.6551C64.7547 22.8092 64.6588 22.9826 64.5628 23.1752C64.4284 23.4642 64.294 23.7724 64.1788 24.0613C64.1404 24.1383 64.1403 24.2154 64.0443 24.2347C63.7755 24.2539 63.5068 24.2924 63.2188 24.331Z" fill="#292627"/>
<defs>
<clipPath id="clip0_1937_21923">
<rect width="15.4872" height="15.296" fill="white" transform="translate(3.31396 3.21826)"/>
</clipPath>
</defs>
</svg>
